# xmcd
#
# Track frame offsets:
#	150
#	16420
#	30885
#	45592
#	62262
#	79507
#	92650
#	109117
#	128412
#	147332
#
# Disc length: 2166 seconds
#
# Revision: 2
# Processed by: cddbd v1.5.2PL0 Copyright (c) Steve Scherf et al.
# Submitted via: audiograbber 1.83.01
#
DISCID=6a08740a
DTITLE=Various Artist - Real 80s Country Disc 3
DYEAR=2003
DGENRE=Country
TTITLE0=Vince Gill - Cinderalla
TTITLE1=Alabama - Song Of The South
TTITLE2=Lorrie Morgan - Out Of Your Shoes
TTITLE3=Keith Whitley - When You Say Nothing At All
TTITLE4=Paul Overstreet - Sowin' Love
TTITLE5=Don Williams - One Good Well
TTITLE6=Michael Johnson - Give Me Wings
TTITLE7=Jo-el Sonnier - Tear Stained Letter
TTITLE8=K.T. Oslin - 80's Ladies
TTITLE9=Foster and Lloyd - Crazy Over You
EXTD=BMG Special Products.
EXTT0=
EXTT1=
EXTT2=
EXTT3=
EXTT4=
EXTT5=
EXTT6=
EXTT7=
EXTT8=
EXTT9=
PLAYORDER=
